{
    "asset" : {
        "generator" : "Khronos glTF Blender I/O v1.6.16",
        "version" : "2.0"
    },
    "scene" : 0,
    "scenes" : [
        {
            "name" : "Scene",
            "nodes" : [
                0,
                1,
                2,
                3
            ]
        }
    ],
    "nodes" : [
        {
            "mesh" : 0,
            "name" : "FungusHead",
            "translation" : [
                0,
                2.1431190967559814,
                0
            ]
        },
        {
            "mesh" : 1,
            "name" : "arms",
            "scale" : [
                0.4235117435455322,
                0.4235117435455322,
                0.4235117435455322
            ],
            "translation" : [
                -1.333768367767334,
                0.885362982749939,
                0.3907356858253479
            ]
        },
        {
            "mesh" : 2,
            "name" : "arms.001",
            "rotation" : [
                -0.07562623918056488,
                0.9960025548934937,
                -0.014331483282148838,
                -0.045323751866817474
            ],
            "scale" : [
                0.4235117435455322,
                0.4235117435455322,
                0.4235117435455322
            ],
            "translation" : [
                1.5242807865142822,
                1.0019512176513672,
                -0.6396819949150085
            ]
        },
        {
            "mesh" : 3,
            "name" : "Cube",
            "scale" : [
                0.35733407735824585,
                0.35733407735824585,
                0.35733407735824585
            ]
        }
    ],
    "meshes" : [
        {
            "name" : "Sphere",
            "primitives" : [
                {
                    "attributes" : {
                        "POSITION" : 0,
                        "NORMAL" : 1,
                        "TEXCOORD_0" : 2
                    },
                    "indices" : 3
                }
            ]
        },
        {
            "name" : "Cube.001",
            "primitives" : [
                {
                    "attributes" : {
                        "POSITION" : 4,
                        "NORMAL" : 5,
                        "TEXCOORD_0" : 6
                    },
                    "indices" : 7
                }
            ]
        },
        {
            "name" : "Cube.002",
            "primitives" : [
                {
                    "attributes" : {
                        "POSITION" : 8,
                        "NORMAL" : 9,
                        "TEXCOORD_0" : 10
                    },
                    "indices" : 7
                }
            ]
        },
        {
            "name" : "Cube.003",
            "primitives" : [
                {
                    "attributes" : {
                        "POSITION" : 11,
                        "NORMAL" : 12,
                        "TEXCOORD_0" : 13
                    },
                    "indices" : 14
                }
            ]
        }
    ],
    "accessors" : [
        {
            "bufferView" : 0,
            "componentType" : 5126,
            "count" : 608,
            "max" : [
                2.009918212890625,
                3.509965419769287,
                2.0295193195343018
            ],
            "min" : [
                -1.772004246711731,
                -1.105792760848999,
                -1.9935046434402466
            ],
            "type" : "VEC3"
        },
        {
            "bufferView" : 1,
            "componentType" : 5126,
            "count" : 608,
            "type" : "VEC3"
        },
        {
            "bufferView" : 2,
            "componentType" : 5126,
            "count" : 608,
            "type" : "VEC2"
        },
        {
            "bufferView" : 3,
            "componentType" : 5123,
            "count" : 864,
            "type" : "SCALAR"
        },
        {
            "bufferView" : 4,
            "componentType" : 5126,
            "count" : 112,
            "max" : [
                3.2227232456207275,
                4.582463264465332,
                -0.013454437255859375
            ],
            "min" : [
                -0.1322982907295227,
                -0.50633305311203,
                -2.1673712730407715
            ],
            "type" : "VEC3"
        },
        {
            "bufferView" : 5,
            "componentType" : 5126,
            "count" : 112,
            "type" : "VEC3"
        },
        {
            "bufferView" : 6,
            "componentType" : 5126,
            "count" : 112,
            "type" : "VEC2"
        },
        {
            "bufferView" : 7,
            "componentType" : 5123,
            "count" : 168,
            "type" : "SCALAR"
        },
        {
            "bufferView" : 8,
            "componentType" : 5126,
            "count" : 112,
            "max" : [
                3.2227232456207275,
                4.582463264465332,
                -0.013454437255859375
            ],
            "min" : [
                -0.1322982907295227,
                -0.50633305311203,
                -2.1673712730407715
            ],
            "type" : "VEC3"
        },
        {
            "bufferView" : 9,
            "componentType" : 5126,
            "count" : 112,
            "type" : "VEC3"
        },
        {
            "bufferView" : 10,
            "componentType" : 5126,
            "count" : 112,
            "type" : "VEC2"
        },
        {
            "bufferView" : 11,
            "componentType" : 5126,
            "count" : 112,
            "max" : [
                3.669609546661377,
                3.0130815505981445,
                3.276611328125
            ],
            "min" : [
                -3.1554014682769775,
                -1.0637184381484985,
                -3.5952727794647217
            ],
            "type" : "VEC3"
        },
        {
            "bufferView" : 12,
            "componentType" : 5126,
            "count" : 112,
            "type" : "VEC3"
        },
        {
            "bufferView" : 13,
            "componentType" : 5126,
            "count" : 112,
            "type" : "VEC2"
        },
        {
            "bufferView" : 14,
            "componentType" : 5123,
            "count" : 168,
            "type" : "SCALAR"
        }
    ],
    "bufferViews" : [
        {
            "buffer" : 0,
            "byteLength" : 7296,
            "byteOffset" : 0
        },
        {
            "buffer" : 0,
            "byteLength" : 7296,
            "byteOffset" : 7296
        },
        {
            "buffer" : 0,
            "byteLength" : 4864,
            "byteOffset" : 14592
        },
        {
            "buffer" : 0,
            "byteLength" : 1728,
            "byteOffset" : 19456
        },
        {
            "buffer" : 0,
            "byteLength" : 1344,
            "byteOffset" : 21184
        },
        {
            "buffer" : 0,
            "byteLength" : 1344,
            "byteOffset" : 22528
        },
        {
            "buffer" : 0,
            "byteLength" : 896,
            "byteOffset" : 23872
        },
        {
            "buffer" : 0,
            "byteLength" : 336,
            "byteOffset" : 24768
        },
        {
            "buffer" : 0,
            "byteLength" : 1344,
            "byteOffset" : 25104
        },
        {
            "buffer" : 0,
            "byteLength" : 1344,
            "byteOffset" : 26448
        },
        {
            "buffer" : 0,
            "byteLength" : 896,
            "byteOffset" : 27792
        },
        {
            "buffer" : 0,
            "byteLength" : 1344,
            "byteOffset" : 28688
        },
        {
            "buffer" : 0,
            "byteLength" : 1344,
            "byteOffset" : 30032
        },
        {
            "buffer" : 0,
            "byteLength" : 896,
            "byteOffset" : 31376
        },
        {
            "buffer" : 0,
            "byteLength" : 336,
            "byteOffset" : 32272
        }
    ],
    "buffers" : [
        {
            "byteLength" : 32608,
            "uri" : "data:application/octet-stream;base64,"
        }
    ]
}
