{
    "asset" : {
        "generator" : "Khronos glTF Blender I/O v1.6.16",
        "version" : "2.0"
    },
    "scene" : 0,
    "scenes" : [
        {
            "name" : "Scene",
            "nodes" : [
                0,
                1
            ]
        }
    ],
    "nodes" : [
        {
            "mesh" : 0,
            "name" : "base",
            "translation" : [
                0,
                0.9361053705215454,
                0
            ]
        },
        {
            "mesh" : 1,
            "name" : "head",
            "scale" : [
                9.059281349182129,
                1,
                10.902008056640625
            ],
            "translation" : [
                0,
                19.97768211364746,
                0
            ]
        }
    ],
    "materials" : [
        {
            "doubleSided" : true,
            "name" : "fungus_base_1",
            "pbrMetallicRoughness" : {
                "baseColorFactor" : [
                    0.9046615362167358,
                    0.36130672693252563,
                    0.11953850090503693,
                    1
                ],
                "metallicFactor" : 0,
                "roughnessFactor" : 0.5
            }
        },
        {
            "doubleSided" : true,
            "name" : "fungus_head_1",
            "pbrMetallicRoughness" : {
                "baseColorFactor" : [
                    0.023153305053710938,
                    0.33716368675231934,
                    0.2746773362159729,
                    1
                ],
                "metallicFactor" : 0,
                "roughnessFactor" : 0.5
            }
        }
    ],
    "meshes" : [
        {
            "name" : "Cylinder",
            "primitives" : [
                {
                    "attributes" : {
                        "POSITION" : 0,
                        "NORMAL" : 1,
                        "TEXCOORD_0" : 2
                    },
                    "indices" : 3,
                    "material" : 0
                }
            ]
        },
        {
            "name" : "Cylinder.001",
            "primitives" : [
                {
                    "attributes" : {
                        "POSITION" : 4,
                        "NORMAL" : 5,
                        "TEXCOORD_0" : 6
                    },
                    "indices" : 7,
                    "material" : 1
                }
            ]
        }
    ],
    "accessors" : [
        {
            "bufferView" : 0,
            "componentType" : 5126,
            "count" : 576,
            "max" : [
                4.564376354217529,
                16.424266815185547,
                4.3038554191589355
            ],
            "min" : [
                -3.9437060356140137,
                -7.385887622833252,
                -4.189997673034668
            ],
            "type" : "VEC3"
        },
        {
            "bufferView" : 1,
            "componentType" : 5126,
            "count" : 576,
            "type" : "VEC3"
        },
        {
            "bufferView" : 2,
            "componentType" : 5126,
            "count" : 576,
            "type" : "VEC2"
        },
        {
            "bufferView" : 3,
            "componentType" : 5123,
            "count" : 858,
            "type" : "SCALAR"
        },
        {
            "bufferView" : 4,
            "componentType" : 5126,
            "count" : 234,
            "max" : [
                1.375157356262207,
                3.6870439052581787,
                1.179092288017273
            ],
            "min" : [
                -1.3695063591003418,
                -6.927214622497559,
                -1.5054619312286377
            ],
            "type" : "VEC3"
        },
        {
            "bufferView" : 5,
            "componentType" : 5126,
            "count" : 234,
            "type" : "VEC3"
        },
        {
            "bufferView" : 6,
            "componentType" : 5126,
            "count" : 234,
            "type" : "VEC2"
        },
        {
            "bufferView" : 7,
            "componentType" : 5123,
            "count" : 378,
            "type" : "SCALAR"
        }
    ],
    "bufferViews" : [
        {
            "buffer" : 0,
            "byteLength" : 6912,
            "byteOffset" : 0
        },
        {
            "buffer" : 0,
            "byteLength" : 6912,
            "byteOffset" : 6912
        },
        {
            "buffer" : 0,
            "byteLength" : 4608,
            "byteOffset" : 13824
        },
        {
            "buffer" : 0,
            "byteLength" : 1716,
            "byteOffset" : 18432
        },
        {
            "buffer" : 0,
            "byteLength" : 2808,
            "byteOffset" : 20148
        },
        {
            "buffer" : 0,
            "byteLength" : 2808,
            "byteOffset" : 22956
        },
        {
            "buffer" : 0,
            "byteLength" : 1872,
            "byteOffset" : 25764
        },
        {
            "buffer" : 0,
            "byteLength" : 756,
            "byteOffset" : 27636
        }
    ],
    "buffers" : [
        {
            "byteLength" : 28392,
            "uri" : "data:application/octet-stream;base64,"
        }
    ]
}
